<?xml version="1.0" standalone="no"?>
<!DOCTYPE svg PUBLIC "-//W3C//DTD SVG 1.1//EN" "http://www.w3.org/Graphics/SVG/1.1/DTD/svg11.dtd" >
<svg xmlns="http://www.w3.org/2000/svg" xmlns:xlink="http://www.w3.org/1999/xlink" version="1.1" viewBox="-10 0 502 1000">
  <g transform="matrix(1 0 0 -1 0 800)">
   <path fill="currentColor"
d="M373 385q-6 0 -10.5 4.5t-4.5 10.5v46q0 7 -4.5 11.5t-11.5 4.5h-192q-6 0 -10.5 -4.5t-4.5 -11.5v-115q0 -7 4.5 -11.5t10.5 -4.5h200q6 0 10.5 -4.5t4.5 -10.5v-46q0 -7 4.5 -11.5t11.5 -4.5h46q6 0 10.5 -4.5t4.5 -10.5v-131q0 -6 -4.5 -10.5t-10.5 -4.5h-46
q-7 0 -11.5 -4.5t-4.5 -10.5v-47q0 -6 -4.5 -10.5t-10.5 -4.5h-208q-6 0 -10.5 4.5t-4.5 10.5v47q0 4 -2 7.5t-5.5 5.5t-7.5 2h-47q-4 0 -7.5 2t-5.5 5.5t-2 7.5v54q0 7 4.5 11.5t10.5 4.5h54q7 0 11.5 -4.5t4.5 -11.5v-46q0 -6 4.5 -10.5t10.5 -4.5h192q7 0 11.5 4.5
t4.5 10.5v115q0 7 -4.5 11.5t-11.5 4.5h-200q-6 0 -10.5 4.5t-4.5 10.5v46q0 4 -2 8t-5.5 6t-7.5 2h-47q-6 0 -10.5 4.5t-4.5 10.5v131q0 6 4.5 10.5t10.5 4.5h47q6 0 10.5 4.5t4.5 11.5v46q0 6 4.5 10.5t10.5 4.5h208q6 0 10.5 -4.5t4.5 -10.5v-46q0 -7 4.5 -11.5
t11.5 -4.5h46q6 0 10.5 -4.5t4.5 -10.5v-54q0 -6 -4.5 -10.5t-10.5 -4.5h-54z" />
  </g>

</svg>
