<svg xmlns="http://www.w3.org/2000/svg" viewBox="0 0 630 630">
  <path fill="#F8E01F" d="M0 0L630 0L630 630L0 630L0 0Z"/>
  <path fill="#2E2E2E" d="M442.628 404.055L536.17 404.035L560.032 404.02C562.248 404.015 572.243 403.874 573.781 404.362C580.373 406.454 588.113 409.771 593.029 414.781C600.249 422.136 604.547 432.347 604.568 442.592C604.579 447.901 603.253 455.256 602.386 460.502C600.782 470.08 599.04 479.634 597.161 489.162C595.738 496.568 594.22 503.956 592.607 511.323C591.703 515.421 590.2 522.585 588.52 526.305C583.333 537.794 566.519 553.395 554.455 556.789C541.907 560.319 523.694 559.564 510.617 559.675L455.427 559.754L393.394 559.589C385.365 559.587 377.336 559.497 369.309 559.317C361.12 559.156 351.954 559.371 344.042 557.074C335.665 554.643 327.877 548.939 321.665 542.959C317.072 538.537 312.599 533.337 310.005 527.455C304.537 515.062 293.439 457.651 293.193 443.734C293.003 433 297.608 422.849 305.1 415.245C310.248 410.004 316.808 406.374 323.983 404.796C327.368 404.072 334.554 404.267 338.227 404.264L359.543 404.245L442.628 404.055Z"/>
  <path fill="#F8E01F" d="M495.178 449.496C512.477 449.192 526.752 462.959 527.074 480.258C527.397 497.557 513.643 511.847 496.345 512.187C479.021 512.527 464.707 498.749 464.384 481.426C464.062 464.102 477.853 449.801 495.178 449.496Z"/>
  <path fill="#2E2E2E" d="M491.978 458.609C504.266 456.522 515.912 464.812 517.962 477.106C520.012 489.4 511.686 501.021 499.386 503.034C487.138 505.039 475.577 496.756 473.536 484.514C471.495 472.272 479.743 460.687 491.978 458.609Z"/>
  <path fill="#F8E01F" d="M400.182 449.497C417.49 449.195 431.767 462.979 432.073 480.288C432.38 497.596 418.599 511.877 401.291 512.187C383.976 512.498 369.689 498.711 369.383 481.397C369.077 464.082 382.867 449.799 400.182 449.497Z"/>
  <path fill="#2E2E2E" d="M396.987 458.607C409.284 456.524 420.932 464.832 422.966 477.138C425 489.443 416.646 501.058 404.332 503.058C392.067 505.048 380.433 496.768 378.402 484.476C376.371 472.185 384.68 460.69 396.987 458.607Z"/>
  <path fill="#F8E01F" d="M305.153 449.49C322.46 449.186 336.737 462.961 337.059 480.26C337.381 497.558 323.627 511.848 306.329 512.188C289.004 512.528 274.69 498.75 274.368 481.426C274.046 464.103 287.837 449.801 305.153 449.49Z"/>
  <path fill="#2E2E2E" d="M301.96 458.608C314.248 456.521 325.894 464.811 327.944 477.105C329.994 489.399 321.668 501.02 309.368 503.033C297.12 505.038 285.559 496.755 283.518 484.513C281.477 472.271 289.725 460.686 301.96 458.608Z"/>
  <path fill="#F8E01F" d="M210.151 449.493C227.467 449.192 241.748 462.976 242.058 480.283C242.369 497.59 228.582 511.873 211.267 512.187C193.946 512.501 179.632 498.715 179.321 481.397C179.011 464.079 192.814 449.794 210.151 449.493Z"/>
  <path fill="#2E2E2E" d="M206.959 458.609C219.257 456.525 230.906 464.832 232.939 477.137C234.972 489.441 226.618 501.058 214.304 503.033C202.038 505.041 190.403 496.76 188.363 484.514C186.323 472.267 194.65 460.687 206.959 458.609Z"/>
  <path fill="#F8E01F" d="M115.154 449.496C132.469 449.194 146.75 462.964 147.061 480.27C147.371 497.576 133.584 511.847 116.27 512.187C98.949 512.527 84.635 498.749 84.325 481.426C84.014 464.102 97.816 449.801 115.154 449.496Z"/>
  <path fill="#2E2E2E" d="M111.96 458.609C124.258 456.525 135.907 464.832 137.94 477.137C139.973 489.441 131.619 501.058 119.305 503.033C107.039 505.041 95.404 496.76 93.364 484.514C91.324 472.267 99.651 460.687 111.96 458.609Z"/>
  <path fill="#2E2E2E" d="M293.193 443.734C293.439 457.651 304.537 515.062 310.005 527.455C312.599 533.337 317.072 538.537 321.665 542.959C327.877 548.939 335.665 554.643 344.042 557.074C351.954 559.371 361.12 559.156 369.309 559.317C377.336 559.497 385.365 559.587 393.394 559.589L455.427 559.754C523.694 559.564 541.907 560.319 554.455 556.789C566.519 553.395 583.333 537.794 588.52 526.305C590.2 522.585 591.703 515.421 592.607 511.323C594.22 503.956 595.738 496.568 597.161 489.162C599.04 479.634 600.782 470.08 602.386 460.502C603.253 455.256 604.579 447.901 604.568 442.592C604.547 432.347 600.249 422.136 593.029 414.781C588.113 409.771 580.373 406.454 573.781 404.362C572.243 403.874 562.248 404.015 560.032 404.02L536.17 404.035L442.628 404.055L359.543 404.264C334.554 404.267 327.368 404.072 323.983 404.796C316.808 406.374 310.248 410.004 305.1 415.245C297.608 422.849 293.003 433 293.193 443.734Z"/>
</svg>